<svg width="30" height="30" viewBox="0 0 30 30" fill="none" xmlns="http://www.w3.org/2000/svg">
<circle cx="14.93" cy="14.9998" r="14.43" fill="#6C5CE7"/>
<g clip-path="url(#clip0_4336_13703)">
<path d="M10.6426 14.3671C10.9909 12.0001 13.1921 10.3636 15.5591 10.7119C16.3667 10.8307 17.1242 11.1753 17.7445 11.706L17.1861 12.2644C16.999 12.4516 16.999 12.755 17.1862 12.9422C17.2761 13.032 17.3979 13.0825 17.525 13.0825H19.7231C19.9878 13.0825 20.2024 12.8679 20.2024 12.6032V10.4051C20.2024 10.1404 19.9877 9.92585 19.723 9.9259C19.596 9.92592 19.4741 9.9764 19.3842 10.0662L18.7611 10.6893C16.3849 8.57119 12.7415 8.78036 10.6234 11.1565C9.87301 11.9983 9.38605 13.0418 9.22284 14.1576C9.15849 14.5532 9.42701 14.926 9.82257 14.9904C9.8582 14.9962 9.8942 14.9993 9.9303 14.9998C10.2922 14.9959 10.596 14.726 10.6426 14.3671Z" fill="white"/>
<path d="M19.6231 14.9995C19.2612 15.0034 18.9574 15.2733 18.9109 15.6322C18.5626 17.9992 16.3614 19.6357 13.9943 19.2874C13.1868 19.1686 12.4292 18.824 11.8089 18.2933L12.3673 17.7349C12.5545 17.5477 12.5544 17.2443 12.3672 17.0571C12.2773 16.9673 12.1555 16.9168 12.0284 16.9168H9.83035C9.56563 16.9168 9.35104 17.1314 9.35104 17.3961V19.5942C9.35111 19.8589 9.56574 20.0734 9.83046 20.0734C9.95751 20.0734 10.0794 20.0229 10.1692 19.9331L10.7923 19.31C13.1679 21.4283 16.811 21.2198 18.9294 18.8442C19.6802 18.0022 20.1674 16.9584 20.3306 15.8422C20.3952 15.4466 20.1269 15.0736 19.7314 15.009C19.6956 15.0031 19.6594 14.9999 19.6231 14.9995Z" fill="white"/>
</g>
<defs>
<clipPath id="clip0_4336_13703">
<rect width="11.544" height="11.544" fill="white" transform="translate(9.15802 9.22803)"/>
</clipPath>
</defs>
</svg>
