<svg data-logo="logo" xmlns="http://www.w3.org/2000/svg" viewBox="0 0 183 43">
        <g style="opacity: 1;" id="logogram" transform="translate(0, 1) rotate(0)"><path fill-rule="evenodd" clip-rule="evenodd" d="M0.603516 15.43V31.43H5.60352C6.12878 31.43 6.64893 31.5334 7.13428 31.7345C7.61951 31.9355 8.06055 32.2301 8.43188 32.6016C8.80334 32.973 9.09802 33.414 9.29907 33.8993C9.5 34.3846 9.60352 34.9047 9.60352 35.43V40.43H21.6035L36.6035 25.43V9.42999H31.6035C31.0782 9.42999 30.5581 9.32654 30.0728 9.12552C29.5875 8.9245 29.1465 8.62985 28.7751 8.25842C28.4037 7.88699 28.109 7.44601 27.908 6.96072C27.707 6.47543 27.6035 5.95529 27.6035 5.42999V0.429993H15.6035L0.603516 15.43ZM17.6035 30.43H10.6035V19.43L19.6035 10.43H26.6035V21.43L17.6035 30.43Z" fill="#6C5CE7"></path></g>
        <g style="opacity: 1;" id="logotype" transform="translate(43, 1)"><path fill="#394149" d="M18.91 33.42L18.91 33.42Q15.24 33.42 12.56 31.83Q9.88 30.23 8.45 27.38Q7.02 24.53 7.02 20.78L7.02 20.78Q7.02 17.04 8.45 14.17Q9.88 11.30 12.56 9.69Q15.24 8.08 18.91 8.08L18.91 8.08Q23.36 8.08 26.18 10.28Q29.00 12.49 29.70 16.44L29.70 16.44L24.66 16.44Q24.24 14.45 22.77 13.33Q21.30 12.21 18.84 12.21L18.84 12.21Q16.61 12.21 15.00 13.24Q13.39 14.27 12.51 16.20Q11.64 18.13 11.64 20.78L11.64 20.78Q11.64 23.45 12.51 25.35Q13.39 27.26 15.00 28.29Q16.61 29.32 18.84 29.32L18.84 29.32Q21.30 29.32 22.75 28.27Q24.20 27.23 24.66 25.23L24.66 25.23L29.66 25.23Q29.00 29.11 26.18 31.27Q23.36 33.42 18.91 33.42ZM36.66 33L32.11 33L32.11 15.64L36.66 15.64L36.66 18.30Q37.33 16.97 38.38 16.22Q39.42 15.46 40.79 15.46L40.79 15.46L43.00 15.46L43.00 19.52L40.34 19.52Q39.08 19.52 38.25 20.19Q37.43 20.85 37.05 22.18Q36.66 23.52 36.66 25.48L36.66 25.48L36.66 33ZM51.54 33.42L51.54 33.42Q48.56 33.42 46.83 31.37Q45.10 29.32 45.10 25.41L45.10 25.41L45.10 15.64L49.65 15.64L49.65 24.98Q49.65 27.23 50.50 28.40Q51.36 29.57 53.01 29.57L53.01 29.57Q54.86 29.57 55.88 28.26Q56.89 26.95 56.89 24.60L56.89 24.60L56.89 15.64L61.44 15.64L61.44 33L56.89 33L56.89 30.45Q56.12 31.81 54.79 32.62Q53.46 33.42 51.54 33.42ZM71.38 33.42L71.38 33.42Q67.95 33.42 65.73 31.81Q63.51 30.20 63.23 27.50L63.23 27.50L67.88 27.50Q68.13 28.59 69.12 29.25Q70.12 29.92 71.56 29.92L71.56 29.92Q73.06 29.92 73.85 29.36Q74.64 28.80 74.64 27.99L74.64 27.99Q74.64 27.33 74.08 26.95Q73.52 26.56 72.08 26.38L72.08 26.38Q71.56 26.31 70.72 26.17Q69.88 26.04 69.35 25.93L69.35 25.93Q67.92 25.65 66.73 25.02Q65.54 24.39 64.82 23.34Q64.10 22.29 64.10 20.71L64.10 20.71Q64.10 18.41 65.83 16.81Q67.57 15.22 70.89 15.22L70.89 15.22Q74.22 15.22 76.18 16.69Q78.14 18.16 78.38 20.82L78.38 20.82L73.97 20.82Q73.87 19.77 72.97 19.24Q72.08 18.72 70.93 18.72L70.93 18.72Q69.56 18.72 68.83 19.23Q68.09 19.73 68.09 20.47L68.09 20.47Q68.09 21.73 70.40 22.15L70.40 22.15Q70.75 22.18 71.29 22.27Q71.84 22.36 72.43 22.45Q73.03 22.53 73.38 22.60L73.38 22.60Q74.39 22.74 75.37 23.06Q76.35 23.38 77.14 23.92Q77.93 24.46 78.40 25.37Q78.87 26.28 78.87 27.61L78.87 27.61Q78.87 29.32 78.00 30.64Q77.12 31.95 75.46 32.69Q73.80 33.42 71.38 33.42ZM85.94 33L81.39 33L81.39 7.80L85.94 7.80L85.94 18.27Q86.78 16.86 88.30 16.04Q89.83 15.22 91.72 15.22L91.72 15.22Q94.94 15.22 96.70 17.27Q98.47 19.31 98.47 23.23L98.47 23.23L98.47 33L93.96 33L93.96 23.66Q93.96 21.41 93.06 20.24Q92.17 19.07 90.28 19.07L90.28 19.07Q88.39 19.07 87.17 20.38Q85.94 21.70 85.94 24.04L85.94 24.04L85.94 33ZM105.89 33L101.34 33L101.34 15.64L105.89 15.64L105.89 33ZM105.86 12.77L101.45 12.77L101.45 8.36L105.86 8.36L105.86 12.77ZM114.57 33L110.02 33L110.02 13.40Q110.02 10.98 110.58 9.78Q111.14 8.57 112.42 8.18Q113.70 7.80 115.80 7.80L115.80 7.80L117.93 7.80L117.93 11.68L116.67 11.68Q115.41 11.68 114.99 12.07Q114.57 12.45 114.57 13.68L114.57 13.68L114.57 33ZM117.93 19.45L107.64 19.45L107.64 15.64L117.93 15.64L117.93 19.45ZM125.39 40.70L119.72 40.70L119.72 37.09L123.43 37.09Q123.95 37.09 124.30 36.97Q124.65 36.85 124.97 36.43Q125.28 36.01 125.63 35.13L125.63 35.13L127.14 31.88L126.89 33.88L119.33 15.64L124.27 15.64L129.10 27.79L134.14 15.64L138.97 15.64L129.73 36.71Q129.17 38.01 128.73 38.79Q128.29 39.58 127.87 39.98Q127.45 40.38 126.87 40.54Q126.30 40.70 125.39 40.70L125.39 40.70Z"></path></g>
        
      </svg>