<svg width="99" height="30" viewBox="0 0 99 30" fill="none" xmlns="http://www.w3.org/2000/svg">
<circle cx="14.93" cy="14.9998" r="14.43" fill="#6C5CE7"/>
<g clip-path="url(#clip0_4336_13704)">
<path d="M10.6426 14.3671C10.9909 12.0001 13.1921 10.3636 15.5591 10.7119C16.3667 10.8307 17.1242 11.1753 17.7445 11.706L17.1861 12.2644C16.999 12.4516 16.999 12.755 17.1862 12.9422C17.2761 13.032 17.3979 13.0825 17.525 13.0825H19.7231C19.9878 13.0825 20.2024 12.8679 20.2024 12.6032V10.4051C20.2024 10.1404 19.9877 9.92585 19.723 9.9259C19.596 9.92592 19.4741 9.9764 19.3842 10.0662L18.7611 10.6893C16.3849 8.57119 12.7415 8.78036 10.6234 11.1565C9.87301 11.9983 9.38605 13.0418 9.22284 14.1576C9.15849 14.5532 9.42701 14.926 9.82257 14.9904C9.8582 14.9962 9.8942 14.9993 9.9303 14.9998C10.2922 14.9959 10.596 14.726 10.6426 14.3671Z" fill="white"/>
<path d="M19.6231 14.9995C19.2612 15.0034 18.9574 15.2733 18.9109 15.6322C18.5626 17.9992 16.3614 19.6357 13.9943 19.2874C13.1868 19.1686 12.4292 18.824 11.8089 18.2933L12.3673 17.7349C12.5545 17.5477 12.5544 17.2443 12.3672 17.0571C12.2773 16.9673 12.1555 16.9168 12.0284 16.9168H9.83035C9.56563 16.9168 9.35104 17.1314 9.35104 17.3961V19.5942C9.35111 19.8589 9.56574 20.0734 9.83046 20.0734C9.95751 20.0734 10.0794 20.0229 10.1692 19.9331L10.7923 19.31C13.1679 21.4283 16.811 21.2198 18.9294 18.8442C19.6802 18.0022 20.1674 16.9584 20.3306 15.8422C20.3952 15.4466 20.1269 15.0736 19.7314 15.009C19.6956 15.0031 19.6594 14.9999 19.6231 14.9995Z" fill="white"/>
</g>
<path d="M39.3866 15.0354C39.3866 15.8234 39.5651 16.5068 39.9222 17.0856C40.2793 17.652 40.7473 18.083 41.326 18.3785C41.917 18.674 42.5635 18.8218 43.2654 18.8218C43.8811 18.8218 44.4229 18.7418 44.8908 18.5817C45.3587 18.4216 45.7774 18.2123 46.1468 17.9537C46.5162 17.6951 46.8425 17.418 47.1257 17.1225V20.4841C46.6085 20.8905 46.0421 21.2106 45.4264 21.4446C44.8107 21.6785 44.0288 21.7955 43.0807 21.7955C42.0463 21.7955 41.092 21.6354 40.2178 21.3153C39.3435 20.9951 38.5924 20.5334 37.9644 19.93C37.3364 19.3266 36.85 18.6125 36.5052 17.7874C36.1604 16.9624 35.988 16.0451 35.988 15.0354C35.988 14.0256 36.1604 13.1083 36.5052 12.2833C36.85 11.4582 37.3364 10.7441 37.9644 10.1407C38.5924 9.53732 39.3435 9.07556 40.2178 8.75541C41.092 8.43526 42.0463 8.27518 43.0807 8.27518C44.0288 8.27518 44.8107 8.39216 45.4264 8.62612C46.0421 8.86008 46.6085 9.18023 47.1257 9.58658V12.9482C46.8425 12.6527 46.5162 12.3756 46.1468 12.117C45.7774 11.8461 45.3587 11.6368 44.8908 11.489C44.4229 11.329 43.8811 11.2489 43.2654 11.2489C42.5635 11.2489 41.917 11.3967 41.326 11.6922C40.7473 11.9877 40.2793 12.4187 39.9222 12.9851C39.5651 13.5516 39.3866 14.235 39.3866 15.0354ZM48.902 17.2518C48.902 16.3529 49.1114 15.571 49.53 14.9061C49.9487 14.2411 50.5274 13.724 51.2663 13.3545C52.0051 12.9851 52.8362 12.8004 53.7598 12.8004C54.6833 12.8004 55.5083 12.9851 56.2348 13.3545C56.9736 13.724 57.5524 14.2411 57.971 14.9061C58.402 15.571 58.6175 16.3529 58.6175 17.2518C58.6175 18.1384 58.402 18.9141 57.971 19.5791C57.5524 20.244 56.9736 20.7612 56.2348 21.1306C55.5083 21.5 54.6833 21.6847 53.7598 21.6847C52.8362 21.6847 52.0051 21.5 51.2663 21.1306C50.5274 20.7612 49.9487 20.244 49.53 19.5791C49.1114 18.9141 48.902 18.1384 48.902 17.2518ZM51.765 17.2518C51.765 17.6951 51.8573 18.0768 52.042 18.397C52.2267 18.7048 52.4668 18.9449 52.7624 19.1173C53.0579 19.2897 53.3904 19.3759 53.7598 19.3759C54.1169 19.3759 54.4432 19.2897 54.7387 19.1173C55.0465 18.9449 55.2866 18.7048 55.459 18.397C55.6437 18.0768 55.7361 17.6951 55.7361 17.2518C55.7361 16.8085 55.6437 16.4268 55.459 16.1066C55.2866 15.7865 55.0465 15.5402 54.7387 15.3678C54.4432 15.1954 54.1169 15.1092 53.7598 15.1092C53.3904 15.1092 53.0579 15.1954 52.7624 15.3678C52.4668 15.5402 52.2267 15.7865 52.042 16.1066C51.8573 16.4268 51.765 16.8085 51.765 17.2518ZM65.8 16.3283C65.8 15.8234 65.7015 15.4355 65.5045 15.1646C65.3198 14.8937 65.0058 14.7583 64.5625 14.7583C64.267 14.7583 64.0084 14.8199 63.7867 14.943C63.5651 15.0661 63.3927 15.2447 63.2696 15.4786C63.1464 15.7126 63.0849 15.9958 63.0849 16.3283V21.5H60.2774V13.0036H63.0849V14.2781C63.3311 13.8101 63.6636 13.4469 64.0823 13.1883C64.5132 12.9297 65.0427 12.8004 65.6707 12.8004C66.7297 12.8004 67.4993 13.0836 67.9795 13.6501C68.4598 14.2165 68.6999 15.0107 68.6999 16.0328V21.5H65.8V16.3283ZM70.8645 11.3597V8.57071H81.0048L74.8911 18.8218H80.3398V21.5H69.9779L75.9993 11.3597H70.8645ZM82.1891 9.80822C82.1891 9.36493 82.3491 9.00784 82.6693 8.73694C82.9894 8.45373 83.3712 8.31212 83.8145 8.31212C84.2701 8.31212 84.6518 8.45373 84.9596 8.73694C85.2798 9.00784 85.4398 9.36493 85.4398 9.80822C85.4398 10.2515 85.2798 10.6148 84.9596 10.898C84.6518 11.1812 84.2701 11.3228 83.8145 11.3228C83.3712 11.3228 82.9894 11.1812 82.6693 10.898C82.3491 10.6148 82.1891 10.2515 82.1891 9.80822ZM82.4661 13.0036H85.1628V21.5H82.4661V13.0036ZM90.2305 25.5635H87.4414V13.0036H90.2305V25.5635ZM97.1753 17.2518C97.1753 18.2369 96.9783 19.0681 96.5843 19.7453C96.2026 20.4226 95.7039 20.9336 95.0882 21.2784C94.4848 21.6231 93.8322 21.7955 93.1303 21.7955C92.3915 21.7955 91.7512 21.6108 91.2094 21.2414C90.6799 20.8597 90.2736 20.3302 89.9903 19.653C89.7071 18.9634 89.5655 18.163 89.5655 17.2518C89.5655 16.3283 89.7071 15.5279 89.9903 14.8506C90.2736 14.1734 90.6799 13.6501 91.2094 13.2807C91.7512 12.8989 92.3915 12.7081 93.1303 12.7081C93.8322 12.7081 94.4848 12.8805 95.0882 13.2253C95.7039 13.57 96.2026 14.081 96.5843 14.7583C96.9783 15.4232 97.1753 16.2544 97.1753 17.2518ZM94.2385 17.2518C94.2385 16.8085 94.1462 16.4329 93.9615 16.1251C93.7768 15.8173 93.5305 15.5833 93.2227 15.4232C92.9148 15.2632 92.5762 15.1831 92.2068 15.1831C91.8866 15.1831 91.5726 15.2632 91.2648 15.4232C90.9693 15.571 90.723 15.7988 90.526 16.1066C90.329 16.4145 90.2305 16.7962 90.2305 17.2518C90.2305 17.7074 90.329 18.0891 90.526 18.397C90.723 18.7048 90.9693 18.9388 91.2648 19.0988C91.5726 19.2466 91.8866 19.3205 92.2068 19.3205C92.5762 19.3205 92.9148 19.2405 93.2227 19.0804C93.5305 18.9203 93.7768 18.6863 93.9615 18.3785C94.1462 18.0707 94.2385 17.6951 94.2385 17.2518Z" fill="#1B1C1E"/>
<defs>
<clipPath id="clip0_4336_13704">
<rect width="11.544" height="11.544" fill="white" transform="translate(9.15802 9.22803)"/>
</clipPath>
</defs>
</svg>
