<svg width="500" height="500" viewBox="0 0 500 500" fill="none" xmlns="http://www.w3.org/2000/svg">
<rect width="500" height="500" rx="14" fill="white"/>
<path d="M332.876 314.244L330.095 304.945L359.605 286.534L363.386 264.662L382.566 259.731L379.499 295.681L332.876 314.244Z" fill="#D18252"/>
<path d="M361.737 274.202L363.671 257.11L382.566 259.731L380.799 280.44L361.737 274.202Z" fill="#00B894"/>
<path d="M326.386 316.313L318.392 318.95C318.151 319.029 317.937 319.17 317.771 319.361C317.276 319.931 316.322 321.149 317.038 321.347C317.978 321.607 326.677 318.923 326.677 318.923" fill="#D18252"/>
<path d="M327.079 306.523L325.475 308.609C325.191 308.979 324.843 309.294 324.449 309.542L317.831 313.146C317.831 313.146 316.278 314.812 317.235 315.304C318.192 315.796 325.852 313.341 325.852 313.341L316.618 316.387C316.424 316.451 316.251 316.563 316.116 316.715C315.589 317.308 314.329 318.843 315.191 319.082C316.263 319.378 326.185 316.318 326.185 316.318" fill="#D18252"/>
<path d="M319.283 321.846C319.466 321.465 319.962 321.015 320.588 320.59L326.048 319.188L325.443 313.057L327.079 306.523L331.341 304.779C331.341 304.779 337.187 308.01 333.048 316.693C332.763 317.292 332.306 317.797 331.745 318.15L326.953 321.164C326.85 321.21 326.744 321.243 326.633 321.265C325.531 321.48 319.868 323.082 319.439 322.963C319.195 322.896 319.115 322.195 319.283 321.846Z" fill="#D18252"/>
<path d="M325.858 309.03L326.156 307.028C326.251 306.114 325.425 305.819 324.687 305.27L322.161 303.872C321.838 303.693 321.799 303.238 322.094 303.016C322.662 302.587 323.781 301.709 325.481 302.401L331.946 304.759L325.858 309.03Z" fill="#D18252"/>
<path d="M450.417 383.062C454.369 387.987 461.608 398.573 462.822 400.514C463.782 402.049 453.003 409.31 452.464 408.719C449.455 405.418 441.273 396.356 439.095 394.007C435.418 390.043 431.131 385.18 426.962 380.131L441.677 369.451C444.906 374.916 448.351 380.486 450.417 383.062Z" fill="#D18252"/>
<path d="M450.272 406.402L440.639 429.245C439.61 431.685 442.54 433.87 444.586 432.188L471.889 409.972C473.896 408.213 459.611 396.377 459.611 396.377L459.535 398.447C459.358 403.293 455.089 406.959 450.272 406.402Z" fill="black"/>
<path d="M439.779 432.143L441.597 434.387C441.987 434.869 442.694 434.943 443.176 434.553L473.143 410.281C473.625 409.891 473.699 409.184 473.309 408.702L471.491 406.458C471.101 405.976 470.393 405.902 469.912 406.292L439.945 430.564C439.463 430.953 439.389 431.661 439.779 432.143Z" fill="#00B894"/>
<path d="M452.911 411.493C453.354 411.461 453.751 411.158 453.882 410.707C454.05 410.127 453.715 409.521 453.136 409.353L449.195 408.214C448.617 408.049 448.009 408.381 447.842 408.96C447.674 409.54 448.009 410.146 448.588 410.314L452.529 411.453C452.657 411.491 452.786 411.503 452.911 411.493Z" fill="#00B894"/>
<path d="M451.416 415.401C451.859 415.369 452.256 415.066 452.387 414.614C452.554 414.035 452.22 413.429 451.64 413.261L447.699 412.123C447.119 411.957 446.513 412.29 446.346 412.87C446.178 413.449 446.512 414.055 447.092 414.223L451.033 415.361C451.161 415.398 451.29 415.41 451.416 415.401Z" fill="#00B894"/>
<path d="M449.737 419.522C450.18 419.49 450.577 419.187 450.708 418.735C450.876 418.156 450.542 417.55 449.962 417.382L446.021 416.244C445.441 416.077 444.835 416.411 444.667 416.991C444.5 417.57 444.834 418.176 445.414 418.344L449.355 419.482C449.482 419.519 449.611 419.531 449.737 419.522Z" fill="#00B894"/>
<path d="M395.132 317.438L419.444 295.713C419.444 295.713 435.415 316.511 431.187 334.272C428.324 346.299 441.162 365.766 450.937 373.38L424.886 392.397C419.226 385.542 414.979 377.029 412.835 371.33C406.582 354.698 395.132 317.438 395.132 317.438Z" fill="#150206"/>
<path d="M394.833 397.126C394.854 403.574 393.895 416.633 393.629 418.956C393.418 420.793 380.191 419.73 380.137 418.914C379.835 414.363 379.071 401.92 378.827 398.658C378.414 393.153 378.086 386.542 377.972 379.856L396.518 380.695C395.617 387.115 394.822 393.754 394.833 397.126Z" fill="#D18252"/>
<path d="M379.861 415.669L357.63 427.776C355.255 429.069 356.204 432.679 358.908 432.638L394.847 432.278C397.569 432.151 393.696 413.609 393.696 413.609L392.318 415.213C389.095 418.97 383.352 419.18 379.861 415.669Z" fill="black"/>
<path d="M355.1 429.519L355.123 432.515C355.128 433.135 355.634 433.634 356.255 433.629L395.678 433.323C396.298 433.318 396.797 432.812 396.792 432.191L396.769 429.195C396.764 428.575 396.257 428.076 395.637 428.081L356.214 428.387C355.594 428.392 355.095 428.899 355.1 429.519Z" fill="#00B894"/>
<path d="M379.36 421.61C379.583 421.61 379.808 421.544 380.004 421.404C380.507 421.048 380.626 420.351 380.269 419.849L377.847 416.432C377.492 415.929 376.795 415.809 376.291 416.167C375.788 416.523 375.669 417.22 376.026 417.722L378.448 421.139C378.666 421.446 379.01 421.61 379.36 421.61Z" fill="#00B894"/>
<path d="M375.678 423.778C375.901 423.778 376.126 423.712 376.322 423.572C376.825 423.216 376.944 422.519 376.587 422.017L374.165 418.6C373.809 418.098 373.112 417.977 372.609 418.335C372.106 418.691 371.987 419.388 372.344 419.89L374.766 423.307C374.984 423.615 375.329 423.778 375.678 423.778Z" fill="#00B894"/>
<path d="M371.715 426C371.938 426 372.163 425.934 372.359 425.794C372.862 425.439 372.981 424.741 372.624 424.239L370.202 420.821C369.846 420.319 369.149 420.198 368.647 420.556C368.144 420.911 368.025 421.609 368.382 422.111L370.804 425.529C371.021 425.836 371.365 426 371.715 426Z" fill="#00B894"/>
<path d="M387.776 309.916L419.382 304.798C419.382 304.798 427.581 333.327 413.204 344.579C403.468 352.199 398.956 381.629 401.853 393.676L369.629 392.307C369.476 383.419 374.156 363.121 376.033 357.329C381.51 340.427 387.776 309.916 387.776 309.916Z" fill="#150206"/>
<path d="M404.456 360.676C403.975 357.652 403.776 341.557 404.117 342.934C405.006 346.52 405.915 350.57 406.807 354.021C405.981 356.5 405.02 358.154 404.456 360.676Z" fill="#3D1042"/>
<path d="M369.055 249.867L394.246 243.429C405.397 241.425 410.651 246.846 412.26 252.805L419.72 281.159L432.744 309.141L381.486 326.748L365.927 276.492C362.551 269.794 362.335 262.163 364.156 254.888C364.484 253.579 365.039 252.603 365.781 251.788C366.649 250.833 367.805 250.186 369.055 249.867Z" fill="#00B894"/>
<path d="M380.494 232.674L385.818 245.237C386.536 246.91 384.546 252.973 380.663 256.02C378.384 257.807 375.014 256.776 374.071 254.038L369.838 241.754L380.494 232.674Z" fill="#D18252"/>
<path d="M371.661 247.047L369.76 241.509L376.748 232.529L377.49 234.761C377.49 234.761 377.978 238.855 371.661 247.047Z" fill="#755237"/>
<path d="M382.14 236.56L367.622 244.427C365.52 245.586 363.07 245.508 361.109 244.436C359.574 243.597 358.528 242.077 358.032 240.399L354.777 225.607L373.715 215.167L382.14 236.56Z" fill="#D18252"/>
<path d="M351.168 222.976C355.876 232.569 368.636 219.129 370.17 223.456C374.095 234.525 379.632 230.191 379.632 230.191C379.632 230.191 382.939 211.072 372.879 213.649C362.819 216.225 344.209 208.796 351.168 222.976Z" fill="#522169"/>
<path d="M381.505 225.442C382.672 227.559 381.902 230.221 379.785 231.389C377.668 232.556 375.006 231.786 373.838 229.669C372.671 227.552 373.441 224.89 375.558 223.723C377.675 222.555 380.338 223.325 381.505 225.442Z" fill="#D18252"/>
<path d="M356.198 228.455L354.554 234.93C354.309 235.894 355.253 236.566 356.315 236.182L358.497 235.393L356.198 228.455Z" fill="#D18252"/>
<path d="M377.388 229.063L377.106 228.982L377.955 226.047L378.237 226.128L377.388 229.063Z" fill="#402B6E"/>
<path d="M379.098 228.12L376.163 227.271L376.245 226.989L379.181 227.839L379.098 228.12Z" fill="#402B6E"/>
<path d="M360.293 230.615C360.462 230.922 360.35 231.307 360.044 231.476C359.738 231.645 359.352 231.534 359.183 231.227C359.014 230.92 359.126 230.535 359.432 230.366C359.738 230.197 360.124 230.309 360.293 230.615Z" fill="#522169"/>
<path d="M361.915 228.98C361.839 229.022 361.751 229.042 361.658 229.032L358.983 228.759C358.742 228.735 358.568 228.519 358.591 228.278C358.615 228.035 358.832 227.861 359.073 227.886L361.748 228.159C361.988 228.184 362.163 228.399 362.139 228.64C362.124 228.789 362.036 228.913 361.915 228.98Z" fill="#522169"/>
<path d="M359.254 237.052C359.254 237.052 361.419 236.206 363.554 233.285C363.554 233.285 364.957 239.222 359.254 237.052Z" fill="white"/>
<path d="M365.178 318.607L362.396 309.308L391.906 290.896L388.647 269.025L407.827 264.094L411.799 300.044L365.178 318.607Z" fill="#D18252"/>
<path d="M358.686 320.675L350.692 323.312C350.451 323.391 350.237 323.532 350.071 323.723C349.575 324.293 348.622 325.511 349.338 325.709C350.278 325.969 358.977 323.285 358.977 323.285" fill="#D18252"/>
<path d="M359.38 310.886L357.776 312.972C357.492 313.342 357.144 313.657 356.75 313.905L350.132 317.509C350.132 317.509 348.579 319.175 349.536 319.667C350.493 320.159 358.153 317.704 358.153 317.704L348.919 320.75C348.725 320.814 348.552 320.926 348.417 321.078C347.89 321.671 346.63 323.206 347.492 323.444C348.564 323.74 358.486 320.68 358.486 320.68" fill="#D18252"/>
<path d="M351.584 326.209C351.767 325.828 352.263 325.378 352.889 324.953L358.349 323.551L357.744 317.42L359.38 310.886L363.642 309.142C363.642 309.142 369.488 312.373 365.349 321.056C365.063 321.655 364.607 322.16 364.046 322.513L359.254 325.527C359.151 325.573 359.045 325.606 358.934 325.628C357.832 325.844 352.169 327.445 351.74 327.326C351.496 327.258 351.417 326.557 351.584 326.209Z" fill="#D18252"/>
<path d="M358.159 313.393L358.456 311.39C358.551 310.476 357.725 310.181 356.987 309.632L354.461 308.234C354.138 308.055 354.099 307.6 354.394 307.378C354.962 306.949 356.081 306.071 357.781 306.763L364.246 309.121L358.159 313.393Z" fill="#D18252"/>
<path d="M247.009 95.1699C266.555 95.1701 282.906 108.689 287.325 126.88L287.617 128.081L288.8 127.724C291.149 127.015 293.636 126.625 296.214 126.625C310.361 126.625 321.83 138.093 321.83 152.241C321.83 165.913 311.106 177.054 297.611 177.783L197.714 177.74C184.537 176.683 174.17 165.685 174.17 152.241C174.17 138.093 185.638 126.625 199.786 126.625C201.718 126.625 203.599 126.859 205.423 127.269L206.532 127.518L206.812 126.417C211.397 108.462 227.632 95.1699 247.009 95.1699Z" fill="#6C5CE7" stroke="#E9E9E9" stroke-width="2.34"/>
<path d="M262.333 134.482L248.427 120.575C248.191 120.339 247.808 120.339 247.572 120.575L233.665 134.482C232.668 135.479 232.792 137.179 234.037 138.002C234.942 138.6 236.159 138.421 236.927 137.654L245.725 128.857V156.429C245.725 157.514 246.459 158.502 247.522 158.72C248.984 159.02 250.274 157.905 250.274 156.495V128.856L259.117 137.699C259.546 138.129 260.117 138.365 260.725 138.365C261.332 138.365 261.904 138.129 262.333 137.699C262.764 137.269 263 136.698 263 136.09C263 135.483 262.764 134.911 262.333 134.482Z" fill="white"/>
<path d="M301.438 325.456H176.058L204.3 312.511H329.679L301.438 325.456Z" fill="#6C5CE7"/>
<path d="M322.52 275.699L205.554 266.123L196.41 377.803L313.377 387.379L322.52 275.699Z" fill="white"/>
<path d="M315.145 281.798L212.273 273.375L204.241 371.488L307.112 379.91L315.145 281.798Z" fill="#F74D36"/>
<path d="M306.978 379.857L249.889 375.212L281.724 337.087L306.978 379.857Z" fill="#15664C"/>
<path d="M271.286 376.953L204.186 371.493L242.23 319.001L271.286 376.953Z" fill="#15664C"/>
<path d="M269.662 323.468C276.347 322.458 280.948 316.22 279.939 309.535C278.929 302.85 272.692 298.248 266.006 299.258C259.321 300.267 254.72 306.505 255.729 313.19C256.739 319.876 262.976 324.477 269.662 323.468Z" fill="#15664C"/>
<path d="M297.847 275.878L180.998 286.721L191.351 398.289L308.2 387.446L297.847 275.878Z" fill="white"/>
<path d="M291.641 283.163L188.873 292.7L197.968 390.714L300.736 381.177L291.641 283.163Z" fill="#522169"/>
<path d="M300.632 381.149L243.602 386.473L268.345 343.406L300.632 381.149Z" fill="#15664C"/>
<path d="M264.978 384.478L197.947 390.735L226.313 332.442L264.978 384.478Z" fill="#15664C"/>
<path d="M260.238 327.481C264.109 321.938 262.753 314.306 257.21 310.435C251.666 306.564 244.035 307.92 240.164 313.464C236.293 319.007 237.649 326.639 243.192 330.51C248.736 334.38 256.368 333.024 260.238 327.481Z" fill="#15664C"/>
<path d="M321.283 295.482L204.386 285.096L194.47 396.709L311.366 407.095L321.283 295.482Z" fill="white"/>
<path d="M313.865 301.531L211.056 292.396L202.344 390.449L305.153 399.584L313.865 301.531Z" fill="#131313"/>
<path d="M305.024 399.531L247.969 394.491L280.068 356.588L305.024 399.531Z" fill="#00B894"/>
<path d="M269.354 396.38L202.293 390.456L240.699 338.228L269.354 396.38Z" fill="#00B894"/>
<path d="M278.022 334.39C280.024 327.932 276.412 321.075 269.954 319.073C263.497 317.071 256.639 320.683 254.637 327.14C252.635 333.598 256.247 340.455 262.705 342.457C269.162 344.459 276.02 340.847 278.022 334.39Z" fill="#00B894"/>
<path d="M301.437 325.456H176.058V426.39H301.437V325.456Z" fill="#6C5CE7"/>
<path d="M329.679 413.445L301.438 426.39V325.456L329.679 312.511V413.445Z" fill="#6C5CE7"/>
<path d="M329.679 352.17L301.438 365.115V325.456L329.679 312.511V352.17Z" fill="#6C5CE7"/>
<path d="M329.679 350.758L301.438 363.703V325.456L329.679 312.511V350.758Z" fill="white"/>
<path d="M357.92 334.871L329.679 347.816L301.438 325.456L329.679 312.511L357.92 334.871Z" fill="#6C5CE7"/>
<path d="M301.437 325.456H176.058V363.702H301.437V325.456Z" fill="white"/>
<path d="M287.319 357.23H161.419L176.058 325.456H301.438L287.319 357.23Z" fill="#6C5CE7"/>
<path d="M65.8607 383.631C62.6857 388.232 57.9077 397.148 56.9597 398.94C56.2097 400.357 65.2527 406.972 65.6907 406.415C68.1367 403.309 74.7827 394.785 76.5567 392.573C79.5507 388.839 83.0247 384.272 86.3837 379.547L72.7107 371.056C70.2077 376.087 67.5217 381.225 65.8607 383.631Z" fill="#FFB781"/>
<path d="M67.4788 404.23L77.4418 423.784C78.5058 425.873 76.0578 427.989 74.1448 426.634L48.6208 408.761C46.7368 407.336 58.5948 395.975 58.5948 395.975L58.7938 397.797C59.2578 402.064 63.2618 405.029 67.4788 404.23Z" fill="#161616"/>
<path d="M78.3118 426.393L76.9978 428.279C76.6428 428.788 75.9428 428.913 75.4348 428.558L47.6388 409.187C47.1298 408.832 47.0048 408.132 47.3598 407.624L48.6738 405.738C49.0288 405.229 49.7278 405.104 50.2368 405.459L78.0328 424.83C78.5408 425.184 78.6658 425.884 78.3118 426.393Z" fill="#00B894"/>
<path d="M65.474 408.894C65.08 408.894 64.711 408.652 64.567 408.262C64.382 407.76 64.638 407.204 65.14 407.019L68.547 405.762C69.047 405.58 69.605 405.834 69.789 406.335C69.974 406.837 69.718 407.393 69.216 407.578L65.809 408.835C65.698 408.875 65.585 408.894 65.474 408.894Z" fill="#00B894"/>
<path d="M67.0427 412.248C66.6487 412.248 66.2797 412.006 66.1347 411.615C65.9497 411.114 66.2067 410.558 66.7077 410.373L70.1147 409.116C70.6157 408.933 71.1727 409.188 71.3567 409.69C71.5417 410.191 71.2857 410.747 70.7847 410.932L67.3777 412.189C67.2667 412.229 67.1547 412.248 67.0427 412.248Z" fill="#00B894"/>
<path d="M68.7879 415.78C68.3939 415.78 68.0249 415.538 67.8809 415.147C67.6959 414.646 67.9519 414.09 68.4539 413.905L71.8609 412.649C72.3629 412.465 72.9189 412.721 73.1039 413.222C73.2889 413.723 73.0319 414.279 72.5309 414.464L69.1239 415.72C69.0129 415.761 68.8999 415.78 68.7879 415.78Z" fill="#00B894"/>
<path d="M118.489 308.086L98.4858 288.17C98.4858 288.17 78.2448 310.065 83.7408 327.475C87.4628 339.265 76.0618 359.606 66.8608 367.904L94.2148 384.994C99.3658 377.749 102.989 368.952 104.716 363.113C109.754 346.074 118.489 308.086 118.489 308.086Z" fill="#00B894"/>
<path d="M119.715 395.603C119.697 401.193 120.929 411.461 121.16 413.475C121.343 415.067 132.409 415.199 132.456 414.493C132.718 410.548 133.38 399.76 133.592 396.932C133.95 392.159 134.234 386.428 134.334 380.632L118.255 381.359C119.035 386.923 119.724 392.68 119.715 395.603Z" fill="#FFB781"/>
<path d="M132.695 411.679L151.968 422.175C154.027 423.296 153.204 426.426 150.86 426.39L119.702 426.078C117.342 425.968 120.7 409.892 120.7 409.892L121.894 411.283C124.69 414.54 129.668 414.722 132.695 411.679Z" fill="#161616"/>
<path d="M154.161 423.836L154.143 426.134C154.138 426.754 153.632 427.253 153.011 427.248L119.132 426.985C118.512 426.98 118.013 426.473 118.018 425.853L118.036 423.555C118.041 422.935 118.547 422.436 119.168 422.441L153.047 422.704C153.667 422.709 154.166 423.215 154.161 423.836Z" fill="#00B894"/>
<path d="M133.13 416.829C132.937 416.829 132.741 416.771 132.572 416.651C132.136 416.342 132.033 415.738 132.342 415.303L134.442 412.34C134.75 411.904 135.354 411.8 135.791 412.11C136.227 412.419 136.33 413.023 136.021 413.458L133.921 416.421C133.731 416.687 133.433 416.829 133.13 416.829Z" fill="#00B894"/>
<path d="M136.321 418.709C136.128 418.709 135.932 418.651 135.763 418.53C135.327 418.221 135.224 417.617 135.533 417.182L137.633 414.219C137.941 413.784 138.545 413.679 138.981 413.989C139.417 414.298 139.52 414.902 139.211 415.337L137.112 418.3C136.923 418.567 136.625 418.709 136.321 418.709Z" fill="#00B894"/>
<path d="M139.757 420.635C139.564 420.635 139.368 420.577 139.199 420.456C138.763 420.148 138.66 419.543 138.969 419.108L141.069 416.144C141.377 415.708 141.982 415.604 142.417 415.914C142.853 416.222 142.956 416.827 142.647 417.262L140.547 420.226C140.359 420.493 140.06 420.635 139.757 420.635Z" fill="#00B894"/>
<path d="M120.413 303.537L92.6527 298.419C92.6527 298.419 88.3357 327.923 102.713 339.175C112.449 346.795 113.079 375.251 110.182 387.297L142.406 385.928C142.559 377.04 137.879 356.742 136.002 350.95C130.525 334.047 120.413 303.537 120.413 303.537Z" fill="#00B894"/>
<path d="M167.544 222.655L159.015 217.768L134.969 242.074L130.442 242.937L134.891 259.175L143.129 257.816L167.544 222.655Z" fill="#FFB781"/>
<path d="M97.8877 249.136L108.312 263.561L134.891 259.175L130.442 242.937L97.8877 249.136Z" fill="#150206"/>
<path d="M106.905 247.571L90.1808 250.287C88.6278 250.539 87.1048 250.991 85.6968 251.694C78.1088 255.48 77.5828 265.733 78.7788 270.619L85.7248 298.148L83.1028 312.512L90.9458 314.946C96.7268 316.74 102.791 317.529 108.828 317.083C114.8 316.642 117.865 315.166 123.102 311.957L120.031 286.388C127.072 272.591 117.596 254.375 112.977 249.408C112.103 248.468 111.19 247.93 110.189 247.614C109.126 247.278 107.984 247.291 106.905 247.571Z" fill="#150206"/>
<path d="M91.9849 234.836L91.6299 250.041C91.7919 251.679 96.0159 255.613 100.421 256.33C103.006 256.751 105.225 254.462 104.777 251.882L102.766 240.305L91.9849 234.836Z" fill="#FFB781"/>
<path d="M104.309 249.203L103.396 243.987L93.9399 239.926L94.3269 242.018C94.3269 242.018 95.7289 245.472 104.309 249.203Z" fill="#E69361"/>
<path d="M94.775 247.494L109.15 242.337C111.196 241.612 112.615 239.908 113.068 237.939C113.422 236.397 113.023 234.777 112.186 233.434L106.218 221.917L89.083 229.563L94.775 247.494Z" fill="#FFB781"/>
<path d="M106.219 221.916C106.968 222.428 97.7837 239.867 93.9407 239.926L91.8417 241.022C91.8417 241.022 79.5467 237.583 84.1267 224.916C86.7587 217.635 99.9677 217.645 106.219 221.916Z" fill="#F74D36"/>
<path d="M92.0989 242.029C93.8849 243.172 96.2599 242.651 97.4039 240.864C98.5469 239.077 98.0259 236.703 96.2389 235.559C94.4519 234.416 92.0779 234.937 90.9339 236.724C89.7909 238.511 90.3129 240.886 92.0989 242.029Z" fill="#FFB781"/>
<path d="M95.948 239.19L93.689 238.128L93.811 237.912L96.069 238.974L95.948 239.19Z" fill="#451A5E"/>
<path d="M94.4118 239.647L94.1758 239.537L95.3468 237.455L95.5818 237.565L94.4118 239.647Z" fill="#451A5E"/>
<path d="M106.292 228.653C106.398 228.952 106.725 229.107 107.024 229.002C107.322 228.896 107.478 228.569 107.373 228.27C107.267 227.972 106.94 227.815 106.641 227.921C106.343 228.027 106.187 228.355 106.292 228.653Z" fill="#451A5E"/>
<path d="M108.786 234.369C108.105 234.417 107.288 234.295 106.335 233.855C106.269 233.824 106.24 233.746 106.271 233.679C106.301 233.613 106.379 233.583 106.447 233.615C109.511 235.03 111.024 233.038 111.087 232.953C111.131 232.895 111.213 232.881 111.272 232.924C111.331 232.967 111.344 233.049 111.301 233.109C111.288 233.125 110.441 234.252 108.786 234.369Z" fill="#451A5E"/>
<path d="M108.03 225.601L111.21 227.954C111.622 228.259 111.746 228.82 111.5 229.27L110.696 230.745L108.03 225.601Z" fill="#FFB781"/>
<path d="M151.2 269.505L144.791 263.561L118.181 280.087L111.053 274.678L99.4429 288.216L117.664 299.8L151.2 269.505Z" fill="#FFB781"/>
<path d="M107.799 272.208L79.9937 259.729L81.7936 269.334C83.3236 276.59 85.3416 279.501 91.8916 283.414L99.4426 288.215L111.053 274.677L107.799 272.208Z" fill="#150206"/>
<path d="M298.868 217.258L197.24 158.581L141.215 255.616L242.843 314.293L298.868 217.258Z" fill="white"/>
<path d="M166.173 214.482L167.556 217.828C167.682 218.08 167.74 218.358 167.72 218.638C167.66 219.474 167.449 221.179 166.733 220.771C165.792 220.235 163.893 216.298 163.893 216.298" fill="#FFB781"/>
<path d="M167.697 212.725L169.08 216.071C169.206 216.323 169.264 216.601 169.244 216.881C169.184 217.717 168.973 219.422 168.257 219.014C167.316 218.478 165.417 214.541 165.417 214.541" fill="#FFB781"/>
<path d="M169.222 210.969L170.605 214.315C170.731 214.566 170.789 214.845 170.769 215.125C170.709 215.961 170.498 217.666 169.782 217.258C168.841 216.722 166.942 212.785 166.942 212.785" fill="#FFB781"/>
<path d="M168.876 211.461C168.876 211.461 170.364 214.965 171.305 215.501C172.021 215.909 172.232 214.205 172.292 213.369C172.312 213.089 172.254 212.81 172.128 212.559L171.354 210.687C170.986 209.796 170.009 209.305 169.083 209.572C167.529 210.021 165.22 210.993 163.659 213.011C161.111 216.304 158.839 217.923 158.839 217.923L160.565 219.027C162.349 220.168 164.729 219.527 165.697 217.643L168.876 211.461Z" fill="#FFB781"/>
<path d="M289.593 219.617L200.211 168.01L150.993 253.257L240.375 304.863L289.593 219.617Z" fill="#00B894"/>
<path d="M240.306 304.778L190.687 276.165L235.768 255.316L240.306 304.778Z" fill="white"/>
<path d="M209.285 286.89L150.964 253.26L207.801 222.078L209.285 286.89Z" fill="white"/>
<path d="M244.874 232.136C241.551 238.024 234.083 240.103 228.195 236.78C222.307 233.457 220.228 225.989 223.551 220.101C226.874 214.213 234.342 212.133 240.23 215.457C246.118 218.78 248.198 226.247 244.874 232.136Z" fill="white"/>
<path d="M155.451 265.083L160.76 259.672C160.92 259.509 161.118 259.392 161.339 259.333C161.996 259.159 163.36 258.873 163.235 259.53C163.071 260.393 157.444 266.356 157.444 266.356" fill="#FFB781"/>
<path d="M147.266 261.751L149.589 261.284C150.001 261.201 150.394 261.046 150.751 260.826L156.294 256.911C156.294 256.911 158.258 256.319 158.275 257.287C158.292 258.256 153.262 263.47 153.262 263.47L159.395 257.219C159.524 257.088 159.683 256.993 159.86 256.944C160.549 256.754 162.29 256.346 162.14 257.137C161.953 258.121 155.535 264.922 155.535 264.922" fill="#FFB781"/>
<path d="M162.747 261.543C162.367 261.539 161.806 261.762 161.213 262.098L157.91 265.953L153.196 263.026L147.266 261.75L144.162 264.501C144.162 264.501 144.449 270.509 153.111 270.617C153.709 270.624 154.298 270.457 154.806 270.144L159.147 267.47C159.225 267.405 159.294 267.333 159.356 267.252C159.968 266.447 163.513 262.507 163.588 262.114C163.63 261.889 163.095 261.547 162.747 261.543Z" fill="#FFB781"/>
<path d="M149.777 261.761L148.041 261.205C147.264 260.918 147.355 260.133 147.205 259.319L147.079 256.722C147.063 256.39 146.711 256.177 146.414 256.327C145.842 256.616 144.687 257.171 144.571 258.82L143.906 264.982L149.777 261.761Z" fill="#FFB781"/>
<path d="M89.0836 225.213C89.0836 225.213 80.8276 214.064 70.0766 220.917C59.3246 227.77 66.6206 242.283 67.3886 246.066C68.1566 249.849 64.8926 254.908 61.2446 255.354C61.2446 255.354 70.0766 262.004 77.3716 251.415C84.6676 240.825 77.9216 226.719 83.4066 226.957C88.8916 227.195 89.0836 225.213 89.0836 225.213Z" fill="#F74D36"/>
<path d="M86.4026 221.734C86.4026 221.734 81.1536 221.917 83.3546 227.678Z" fill="#15664C"/>
<path d="M110.551 356.933C111.032 353.909 111.633 336.819 111.292 338.196C110.403 341.782 109.494 345.392 108.602 348.843C109.428 351.323 110.071 354.063 110.551 356.933Z" fill="#CF4BB2"/>
</svg>
